<?xml version="1.0" standalone="no"?><!DOCTYPE svg PUBLIC "-//W3C//DTD SVG 1.1//EN" "http://www.w3.org/Graphics/SVG/1.1/DTD/svg11.dtd"><svg class="icon" width="200px" height="200.00px" viewBox="0 0 1024 1024" version="1.1" xmlns="http://www.w3.org/2000/svg"><path d="M130.56 788.48l-19.456-13.824c-30.208-21.504-37.376-64-15.872-94.208l189.44-267.776c21.504-30.208 64-37.376 94.208-15.872l19.456 13.824c30.208 21.504 37.376 64 15.872 94.208l-189.952 267.776c-20.48 30.208-63.488 37.376-93.696 15.872z m769.536 0l19.456-13.824c30.208-21.504 37.376-64 15.872-94.208l-189.952-267.776c-21.504-30.208-64-37.376-94.208-15.872l-19.456 13.824c-30.208 21.504-37.376 64-15.872 94.208l189.952 267.776c20.992 30.208 64 37.376 94.208 15.872z" fill="#ffffff" /><path d="M833.024 564.224c12.288 202.752-87.04 344.576-294.4 357.376-194.56 11.776-323.584-116.224-335.872-318.976s117.248-403.968 291.328-414.208c174.08-10.752 326.656 173.056 338.944 375.808z" fill="#ffffff" /><path d="M621.056 487.936c-28.16 0-50.688-28.672-50.688-63.488s22.528-63.488 50.688-63.488 50.688 28.672 50.688 63.488c0.512 34.816-22.528 63.488-50.688 63.488z" fill="#1F1204" /><path d="M621.056 366.592c25.088 0 44.544 25.6 44.544 57.344S645.12 481.28 621.056 481.28c-25.088 0-44.544-25.6-44.544-57.344 0-31.744 19.968-57.344 44.544-57.344m0-12.288c-31.232 0-56.832 31.232-56.832 69.632s25.6 69.632 56.832 69.632 56.832-31.232 56.832-69.632-25.088-69.632-56.832-69.632z" fill="#FFFFFF" /><path d="M409.6 487.936c-28.16 0-50.688-28.672-50.688-63.488s22.528-63.488 50.688-63.488 50.688 28.672 50.688 63.488c0.512 34.816-22.528 63.488-50.688 63.488z" fill="#1F1204" /><path d="M409.6 366.592c25.088 0 44.544 25.6 44.544 57.344S434.176 481.28 409.6 481.28c-25.088 0-44.544-25.6-44.544-57.344-0.512-31.744 19.968-57.344 44.544-57.344m0-12.288c-31.232 0-56.832 31.232-56.832 69.632s25.6 69.632 56.832 69.632 56.832-31.232 56.832-69.632S441.344 354.304 409.6 354.304z" fill="#FFFFFF" /><path d="M514.048 458.24c-35.84 0-65.024 28.672-65.024 67.072 0 27.136 29.184 33.792 65.024 33.792s65.024-6.656 65.024-33.792c-0.512-38.4-29.184-67.072-65.024-67.072z" fill="#F29D27" /><path d="M514.56 528.384c-25.088 0-40.448-9.216-40.96-9.728-4.096-3.072-5.632-8.704-3.072-12.8 3.072-4.096 8.704-5.632 12.8-3.072 1.024 0.512 27.648 15.872 67.584-0.512 4.608-2.048 10.24 0.512 12.288 5.12s-0.512 10.24-5.12 12.288c-16.384 6.144-30.72 8.704-43.52 8.704z"  /><path d="M607.232 165.376c0-30.208-24.576-54.784-54.784-54.784-13.824 0-26.112 5.12-35.84 12.8-9.728-8.192-22.016-12.8-35.84-12.8-30.208 0-54.784 24.576-54.784 54.784S450.56 220.672 480.768 220.672c4.096 0 7.68-0.512 11.776-1.024v25.088s88.064-23.04 99.84-40.96c9.216-10.24 14.848-23.552 14.848-38.4z" fill="#d81e06" /></svg>